<svg width="67" height="81" viewBox="0 0 67 81" fill="none" xmlns="http://www.w3.org/2000/svg">
<path d="M65.21 49.5395L35.7803 79.107C34.1995 80.6952 31.6225 80.6752 30.0667 79.0626L1.539 49.495C-0.911465 46.9552 0.888378 42.7177 4.41758 42.7177L14.8191 42.7177C17.0282 42.7177 18.8191 40.9268 18.8191 38.7177L18.8191 4C18.8191 1.79087 20.6099 3.13673e-06 22.8191 3.32986e-06L43.5817 5.14499e-06C45.7909 5.33812e-06 47.5817 1.79087 47.5817 4.00001L47.5817 38.7177C47.5817 40.9268 49.3726 42.7177 51.5817 42.7177L62.375 42.7177C65.9341 42.7177 67.7208 47.0169 65.21 49.5395Z" fill="#E3767E"/>
</svg>
