<svg width="180" height="180" viewBox="0 0 180 180" fill="none" xmlns="http://www.w3.org/2000/svg">
<path d="M87.9624 69.1594V62.7654" stroke="#E3767E" stroke-width="4" stroke-linecap="round"/>
<path d="M114.791 79.2893C107.795 73.9375 99.0493 70.7579 89.561 70.7579C66.6075 70.7579 48 89.3654 48 112.319C48 135.272 66.6075 153.88 89.561 153.88C112.515 153.88 131.122 135.272 131.122 112.319C131.122 102.006 127.366 92.5704 121.147 85.3056" stroke="#E3767E" stroke-width="4" stroke-linecap="round"/>
<path d="M62.6651 128.573C68.2319 137.075 77.8409 142.691 88.7616 142.691C105.977 142.691 119.932 128.735 119.932 111.52C119.932 94.3046 105.977 80.349 88.7616 80.349C71.5465 80.349 57.5908 94.3046 57.5908 111.52C57.5908 114.804 58.0989 117.97 59.0407 120.943" stroke="#E3767E" stroke-width="4" stroke-linecap="round"/>
<path d="M88.7619 91.6168L92.6912 103.71C93.2267 105.358 94.7625 106.474 96.4954 106.474H109.211L98.9239 113.948C97.522 114.967 96.9353 116.772 97.4708 118.42L101.4 130.514L91.113 123.04C89.711 122.021 87.8127 122.021 86.4107 123.04L76.1235 130.514L80.0529 118.42C80.5884 116.772 80.0017 114.967 78.5998 113.948L68.3126 106.474L81.0283 106.474C82.7612 106.474 84.297 105.358 84.8325 103.71L88.7619 91.6168Z" stroke="#E3767E" stroke-width="4"/>
<mask id="path-5-inside-1_181_678" fill="white">
<rect x="73.5762" y="51.576" width="28.773" height="12.788" rx="1"/>
</mask>
<rect x="73.5762" y="51.576" width="28.773" height="12.788" rx="1" stroke="#E3767E" stroke-width="8" mask="url(#path-5-inside-1_181_678)"/>
<path d="M99.9514 54.773L119.933 26.7993M75.9739 54.773L55.1934 26M87.9626 47.5798L81.5686 39.5873M75.9739 31.5948L72.7769 26.7993" stroke="#E3767E" stroke-width="4" stroke-linecap="round"/>
<path d="M83.167 53.9738L103.948 26" stroke="#E3767E" stroke-width="4" stroke-linecap="round"/>
</svg>
