<svg width="130" height="96" viewBox="0 0 130 96" fill="none" xmlns="http://www.w3.org/2000/svg">
<path d="M3.31665 57.7168H13.2069C13.483 57.7168 13.7069 57.9407 13.7069 58.2168V67.6071C13.7069 67.8832 13.483 68.1071 13.2069 68.1071H4.1159" stroke="#E3767E" stroke-width="4" stroke-linecap="round"/>
<path d="M117.61 37.7355H100.03C97.8208 37.7355 96.0299 39.5264 96.0299 41.7355V54.516C96.0299 56.7252 97.8208 58.516 100.03 58.516H127.201M43.2794 77.698H83.6396C84.7442 77.698 85.6396 76.8026 85.6396 75.698V6.56848C85.6396 4.35934 83.8488 2.56848 81.6396 2.56848H6.51758C4.30844 2.56848 2.51758 4.35934 2.51758 6.56848V73.698C2.51758 75.9072 4.30844 77.698 6.51758 77.698H18.5026" stroke="#E3767E" stroke-width="4"/>
<path d="M38.4836 17.7543H71.2529" stroke="#E3767E" stroke-width="4" stroke-linecap="round"/>
<path d="M48.8743 28.1444L69.6548 28.1444" stroke="#E3767E" stroke-width="4" stroke-linecap="round"/>
<circle cx="28.8929" cy="17.7542" r="2.39775" fill="#E3767E"/>
<path d="M87.2382 28.1444H109.6C111.085 28.1444 112.448 28.9672 113.14 30.2814L127.54 57.6413C127.842 58.2158 128 58.8551 128 59.5043V73.7675C128 75.9493 126.252 77.7286 124.07 77.7669L121.606 77.8101M96.8292 77.6979H80.0449" stroke="#E3767E" stroke-width="4" stroke-linecap="round"/>
<path d="M117.61 37.7355H96.53C96.2539 37.7355 96.03 37.9593 96.03 38.2355V58.016C96.03 58.2921 96.2539 58.516 96.53 58.516H127.201" stroke="#E3767E" stroke-width="4" stroke-linecap="round"/>
<path d="M43.6771 80.8949C43.6771 87.7358 38.1314 93.2814 31.2906 93.2814C24.4497 93.2814 18.9041 87.7358 18.9041 80.8949C18.9041 74.0541 24.4497 68.5084 31.2906 68.5084C38.1314 68.5084 43.6771 74.0541 43.6771 80.8949Z" stroke="#E3767E" stroke-width="4"/>
<circle cx="31.2906" cy="80.8951" r="2.7955" stroke="#E3767E" stroke-width="4"/>
<circle cx="109.617" cy="80.8951" r="2.7955" stroke="#E3767E" stroke-width="4"/>
<path d="M122.003 80.8949C122.003 87.7358 116.458 93.2814 109.617 93.2814C102.776 93.2814 97.2305 87.7358 97.2305 80.8949C97.2305 74.0541 102.776 68.5084 109.617 68.5084C116.458 68.5084 122.003 74.0541 122.003 80.8949Z" stroke="#E3767E" stroke-width="4"/>
<path d="M4.11621 93.6831L127.201 93.6831" stroke="#E3767E" stroke-width="4" stroke-linecap="round"/>
</svg>
