<svg width="88" height="133" viewBox="0 0 88 133" fill="none" xmlns="http://www.w3.org/2000/svg">
<path d="M42.5452 45.5533V39.1593" stroke="#E3767E" stroke-width="4" stroke-linecap="round"/>
<path d="M69.3735 55.6832C62.3778 50.3314 53.6321 47.1519 44.1438 47.1519C21.1903 47.1519 2.58276 65.7594 2.58276 88.7129C2.58276 111.666 21.1903 130.274 44.1438 130.274C67.0973 130.274 85.7048 111.666 85.7048 88.7129C85.7048 78.3999 81.9486 68.9643 75.7295 61.6995" stroke="#E3767E" stroke-width="4" stroke-linecap="round"/>
<path d="M17.2481 104.967C22.8149 113.468 32.4239 119.084 43.3446 119.084C60.5597 119.084 74.5154 105.129 74.5154 87.9137C74.5154 70.6986 60.5597 56.7429 43.3446 56.7429C26.1295 56.7429 12.1738 70.6986 12.1738 87.9137C12.1738 91.1984 12.6819 94.3644 13.6237 97.3374" stroke="#E3767E" stroke-width="4" stroke-linecap="round"/>
<path d="M39.415 80.104L43.3444 68.0107L47.2737 80.104C47.8092 81.7521 49.3451 82.868 51.078 82.868H63.7937L53.5064 90.3421C52.1045 91.3606 51.5179 93.1661 52.0534 94.8142L55.9827 106.908L45.6955 99.4334L44.5199 101.051L45.6955 99.4334C44.2936 98.4149 42.3952 98.4149 40.9932 99.4334L30.706 106.908L34.6354 94.8142C35.1709 93.1661 34.5843 91.3606 33.1823 90.3421L22.8951 82.868L35.6108 82.868C37.3437 82.868 38.8795 81.7521 39.415 80.104Z" stroke="#E3767E" stroke-width="4"/>
<mask id="path-5-inside-1_37_1009" fill="white">
<rect x="28.1587" y="27.97" width="28.773" height="12.788" rx="1"/>
</mask>
<rect x="28.1587" y="27.97" width="28.773" height="12.788" rx="1" stroke="#E3767E" stroke-width="8" mask="url(#path-5-inside-1_37_1009)"/>
<path d="M54.5339 31.1669L74.5152 3.19317M30.5564 31.1669L9.77588 2.39392M42.5452 23.9737L36.1511 15.9812M30.5564 7.98868L27.3594 3.19317" stroke="#E3767E" stroke-width="4" stroke-linecap="round"/>
<path d="M37.75 30.3677L58.5305 2.39392" stroke="#E3767E" stroke-width="4" stroke-linecap="round"/>
</svg>
