<svg width="180" height="180" viewBox="0 0 180 180" fill="none" xmlns="http://www.w3.org/2000/svg">
<path d="M27.7993 99.1483H37.6896C37.9657 99.1483 38.1896 99.3722 38.1896 99.6483V109.039C38.1896 109.315 37.9657 109.539 37.6896 109.539H28.5986" stroke="#E3767E" stroke-width="4" stroke-linecap="round"/>
<path d="M142.092 79.167H124.512C122.303 79.167 120.512 80.9579 120.512 83.167V95.9475C120.512 98.1567 122.303 99.9475 124.512 99.9475H151.683M67.7618 119.13H108.122C109.227 119.13 110.122 118.234 110.122 117.13V48C110.122 45.7909 108.331 44 106.122 44H31C28.7909 44 27 45.7909 27 48V115.13C27 117.339 28.7909 119.13 31 119.13H42.985" stroke="#E3767E" stroke-width="4"/>
<path d="M62.9663 59.1858H95.7356" stroke="#E3767E" stroke-width="4" stroke-linecap="round"/>
<path d="M73.3569 69.5759H94.1374" stroke="#E3767E" stroke-width="4" stroke-linecap="round"/>
<circle cx="53.3753" cy="59.1857" r="2.39775" fill="#E3767E"/>
<path d="M111.721 69.5759H134.082C135.568 69.5759 136.93 70.3987 137.622 71.7129L152.022 99.0728C152.324 99.6473 152.482 100.287 152.482 100.936V115.199C152.482 117.381 150.734 119.16 148.553 119.198L146.088 119.242M121.312 119.129H104.527" stroke="#E3767E" stroke-width="4" stroke-linecap="round"/>
<path d="M142.092 79.167H121.012C120.736 79.167 120.512 79.3908 120.512 79.667V99.4475C120.512 99.7236 120.736 99.9475 121.012 99.9475H151.683" stroke="#E3767E" stroke-width="4" stroke-linecap="round"/>
<path d="M68.1593 122.326C68.1593 129.167 62.6136 134.713 55.7727 134.713C48.9319 134.713 43.3862 129.167 43.3862 122.326C43.3862 115.486 48.9319 109.94 55.7727 109.94C62.6136 109.94 68.1593 115.486 68.1593 122.326Z" stroke="#E3767E" stroke-width="4"/>
<circle cx="55.773" cy="122.327" r="2.7955" stroke="#E3767E" stroke-width="4"/>
<circle cx="134.1" cy="122.327" r="2.7955" stroke="#E3767E" stroke-width="4"/>
<path d="M146.486 122.326C146.486 129.167 140.94 134.713 134.099 134.713C127.259 134.713 121.713 129.167 121.713 122.326C121.713 115.486 127.259 109.94 134.099 109.94C140.94 109.94 146.486 115.486 146.486 122.326Z" stroke="#E3767E" stroke-width="4"/>
<path d="M28.5986 135.115L151.683 135.115" stroke="#E3767E" stroke-width="4" stroke-linecap="round"/>
</svg>
