<svg width="128" height="132" viewBox="0 0 128 132" fill="none" xmlns="http://www.w3.org/2000/svg">
<mask id="path-1-inside-1_37_1027" fill="white">
<path d="M33.4331 74.8849C33.4331 74.3326 33.8808 73.8849 34.4331 73.8849H126.745C127.297 73.8849 127.745 74.3326 127.745 74.8849V127.431C127.745 129.64 125.954 131.431 123.745 131.431H37.4331C35.224 131.431 33.4331 129.64 33.4331 127.431V74.8849Z"/>
</mask>
<path d="M33.4331 74.8849C33.4331 74.3326 33.8808 73.8849 34.4331 73.8849H126.745C127.297 73.8849 127.745 74.3326 127.745 74.8849V127.431C127.745 129.64 125.954 131.431 123.745 131.431H37.4331C35.224 131.431 33.4331 129.64 33.4331 127.431V74.8849Z" stroke="#E3767E" stroke-width="8" mask="url(#path-1-inside-1_37_1027)"/>
<path d="M36.6304 91.4681H52.6154M75.7937 91.4681H123.749" stroke="#E3767E" stroke-width="4" stroke-linecap="round"/>
<mask id="path-3-inside-2_37_1027" fill="white">
<rect x="54.2134" y="101.059" width="52.7505" height="17.5835" rx="1"/>
</mask>
<rect x="54.2134" y="101.059" width="52.7505" height="17.5835" rx="1" stroke="#E3767E" stroke-width="8" mask="url(#path-3-inside-2_37_1027)"/>
<circle cx="63.8039" cy="91.4684" r="3.197" fill="#E3767E"/>
<path d="M92.2441 75.4832C95.4134 72.4326 97.3726 68.2243 97.3726 63.5772C97.3726 54.2618 89.5002 46.7102 79.7891 46.7102C70.078 46.7102 62.2056 54.2618 62.2056 63.5772C62.2056 68.2243 64.1648 72.4326 67.3341 75.4832" stroke="#E3767E" stroke-width="4"/>
<mask id="path-6-inside-3_37_1027" fill="white">
<rect x="18.1558" width="21.7229" height="38.6847" rx="3" transform="rotate(27.9905 18.1558 0)"/>
</mask>
<rect x="18.1558" width="21.7229" height="38.6847" rx="3" transform="rotate(27.9905 18.1558 0)" stroke="#E3767E" stroke-width="8" mask="url(#path-6-inside-3_37_1027)"/>
<path d="M33.4331 15.5396L39.0278 18.7366C42.4913 20.3351 51.1765 23.5321 58.2099 23.5321C67.0016 23.5321 78.1911 25.1306 83.7859 36.3201C88.2617 45.2717 89.9135 48.5752 90.1799 49.1081M21.4443 36.3201C22.51 35.7872 25.7603 36.6398 30.2361 44.3126C31.8346 46.4439 35.9907 51.0263 39.8271 52.3051C43.6635 53.5839 55.8121 61.3633 61.4069 65.0931M65.4031 51.5058L55.0057 40.3657C54.5886 39.9189 54.6648 39.2051 55.1973 38.9048C59.8392 36.287 68.6421 34.8265 73.3956 46.7103" stroke="#E3767E" stroke-width="4" stroke-linecap="round"/>
</svg>
