<svg width="180" height="180" viewBox="0 0 180 180" fill="none" xmlns="http://www.w3.org/2000/svg">
<mask id="path-1-inside-1_181_678" fill="white">
<path d="M59.4331 98.8849C59.4331 98.3326 59.8808 97.8849 60.4331 97.8849H152.745C153.297 97.8849 153.745 98.3326 153.745 98.8849V151.431C153.745 153.64 151.954 155.431 149.745 155.431H63.4331C61.224 155.431 59.4331 153.64 59.4331 151.431V98.8849Z"/>
</mask>
<path d="M59.4331 98.8849C59.4331 98.3326 59.8808 97.8849 60.4331 97.8849H152.745C153.297 97.8849 153.745 98.3326 153.745 98.8849V151.431C153.745 153.64 151.954 155.431 149.745 155.431H63.4331C61.224 155.431 59.4331 153.64 59.4331 151.431V98.8849Z" stroke="#E3767E" stroke-width="8" mask="url(#path-1-inside-1_181_678)"/>
<path d="M62.6304 115.468H78.6154M101.794 115.468H149.749" stroke="#E3767E" stroke-width="4" stroke-linecap="round"/>
<mask id="path-3-inside-2_181_678" fill="white">
<rect x="80.2134" y="125.059" width="52.7505" height="17.5835" rx="1"/>
</mask>
<rect x="80.2134" y="125.059" width="52.7505" height="17.5835" rx="1" stroke="#E3767E" stroke-width="8" mask="url(#path-3-inside-2_181_678)"/>
<circle cx="89.8039" cy="115.468" r="3.197" fill="#E3767E"/>
<path d="M118.244 99.4832C121.413 96.4326 123.373 92.2243 123.373 87.5772C123.373 78.2618 115.5 70.7102 105.789 70.7102C96.078 70.7102 88.2056 78.2618 88.2056 87.5772C88.2056 92.2243 90.1648 96.4326 93.3341 99.4832" stroke="#E3767E" stroke-width="4"/>
<mask id="path-6-inside-3_181_678" fill="white">
<rect x="44.1558" y="24" width="21.7229" height="38.6847" rx="3" transform="rotate(27.9905 44.1558 24)"/>
</mask>
<rect x="44.1558" y="24" width="21.7229" height="38.6847" rx="3" transform="rotate(27.9905 44.1558 24)" stroke="#E3767E" stroke-width="8" mask="url(#path-6-inside-3_181_678)"/>
<path d="M59.4331 39.5396L65.0278 42.7366C68.4913 44.3351 77.1765 47.5321 84.2099 47.5321C93.0016 47.5321 104.191 49.1306 109.786 60.3201C114.262 69.2717 115.913 72.5752 116.18 73.1081M47.4443 60.3201C48.51 59.7872 51.7603 60.6398 56.2361 68.3126C57.8346 70.4439 61.9907 75.0263 65.8271 76.3051C69.6635 77.5839 81.8121 85.3633 87.4069 89.0931M91.4031 75.5058L81.0057 64.3657C80.5886 63.9189 80.6648 63.2051 81.1973 62.9048C85.8392 60.287 94.6421 58.8265 99.3956 70.7103" stroke="#E3767E" stroke-width="4" stroke-linecap="round"/>
</svg>
