<svg width="180" height="180" viewBox="0 0 180 180" fill="none" xmlns="http://www.w3.org/2000/svg">
<path d="M125.741 85.1975L96.9963 95.2971C96.6711 95.4114 96.3306 95.5225 96.3306 95.8672V117.91C96.3306 138.235 115.785 152.356 125.705 156.982C125.834 157.042 125.98 157.04 126.111 156.982C150.874 146.093 157.074 126.412 157.074 117.91V95.8914C157.074 95.6762 156.936 95.4851 156.732 95.417L126.065 85.1949C125.96 85.1598 125.846 85.1607 125.741 85.1975Z" stroke="#E3767E" stroke-width="4" stroke-linecap="round"/>
<path d="M112.315 115.512L123.155 128.674C123.342 128.902 123.686 128.919 123.894 128.71L142.687 109.917" stroke="#E3767E" stroke-width="4" stroke-linecap="round"/>
<path d="M106.72 73.9512C97.3952 68.09 68.3564 63.5609 57.1394 84.4994C55.2771 89.0224 50.5984 100.613 46.7649 110.833C46.7544 110.861 46.7466 110.889 46.7414 110.918C45.6898 116.786 46.9689 127.009 60.3632 121.906C73.7906 116.791 78.7458 116.578 79.5449 117.111" stroke="#E3767E" stroke-width="4" stroke-linecap="round"/>
<path d="M45.6573 55.8728C48.3895 58.3943 50.0771 61.4036 50.666 64.1554C51.2563 66.9136 50.725 69.2265 49.33 70.7381C47.935 72.2496 45.6721 72.9645 42.8755 72.5971C40.0853 72.2305 36.9506 70.7893 34.2184 68.2678C31.4861 65.7464 29.7985 62.7371 29.2096 59.9853C28.6193 57.2271 29.1506 54.9142 30.5456 53.4026C31.9406 51.891 34.2035 51.1762 37.0001 51.5436C39.7903 51.9102 42.925 53.3514 45.6573 55.8728Z" stroke="#E3767E" stroke-width="4"/>
<path d="M76.9183 37.798C78.9383 41.4414 79.7709 45.1855 79.5747 48.2385C79.3767 51.3174 78.1792 53.4063 76.4581 54.3605C74.737 55.3147 72.3308 55.2237 69.6147 53.7604C66.9213 52.3095 64.187 49.6197 62.167 45.9762C60.1471 42.3328 59.3144 38.5887 59.5107 35.5357C59.7086 32.4568 60.9062 30.3679 62.6273 29.4137C64.3484 28.4595 66.7545 28.5505 69.4707 30.0138C72.164 31.4647 74.8984 34.1545 76.9183 37.798Z" stroke="#E3767E" stroke-width="4"/>
<path d="M113.271 44.9611C111.416 48.6914 108.805 51.501 106.18 53.0712C103.532 54.6547 101.132 54.8535 99.3701 53.9774C97.608 53.1012 96.318 51.0681 95.9823 48.0011C95.6494 44.96 96.3135 41.1824 98.1681 37.4521C100.023 33.7217 102.634 30.9121 105.259 29.3419C107.907 27.7584 110.307 27.5597 112.069 28.4358C113.831 29.3119 115.121 31.3451 115.457 34.412C115.79 37.4531 115.126 41.2308 113.271 44.9611Z" stroke="#E3767E" stroke-width="4"/>
<path d="M125.103 68.3565C124.837 67.0244 124.784 63.561 126.702 60.364C129.1 56.3677 135.494 49.9737 141.888 52.3715C148.282 54.7692 145.884 65.9587 137.092 71.5535" stroke="#E3767E" stroke-width="4" stroke-linecap="round"/>
</svg>
