<svg width="138" height="138" viewBox="0 0 138 138" fill="none" xmlns="http://www.w3.org/2000/svg">
<path d="M104.647 63.1975L75.9016 73.2971C75.5764 73.4114 75.2358 73.5225 75.2358 73.8672V95.91C75.2358 116.235 94.69 130.356 104.611 134.982C104.74 135.042 104.886 135.04 105.016 134.982C129.779 124.093 135.979 104.412 135.979 95.91V73.8914C135.979 73.6762 135.841 73.4851 135.637 73.417L104.97 63.1949C104.865 63.1598 104.751 63.1607 104.647 63.1975Z" stroke="#E3767E" stroke-width="4" stroke-linecap="round"/>
<path d="M91.2207 93.5122L102.06 106.674C102.248 106.902 102.591 106.919 102.8 106.71L121.592 87.9175" stroke="#E3767E" stroke-width="4" stroke-linecap="round"/>
<path d="M85.625 51.9512C76.3005 46.09 47.2617 41.5609 36.0447 62.4994C34.1823 67.0224 29.5036 78.6127 25.6701 88.8329C25.6597 88.8609 25.6519 88.8888 25.6466 88.9181C24.595 94.7865 25.8741 105.009 39.2685 99.9063C52.6959 94.7911 57.651 94.578 58.4502 95.1108" stroke="#E3767E" stroke-width="4" stroke-linecap="round"/>
<path d="M24.5625 33.8728C27.2948 36.3943 28.9824 39.4036 29.5713 42.1554C30.1616 44.9136 29.6303 47.2265 28.2353 48.7381C26.8403 50.2496 24.5774 50.9645 21.7808 50.5971C18.9906 50.2305 15.8559 48.7893 13.1236 46.2678C10.3914 43.7464 8.70377 40.7371 8.11485 37.9853C7.52458 35.2271 8.05589 32.9142 9.45088 31.4026C10.8459 29.891 13.1088 29.1762 15.9053 29.5436C18.6955 29.9102 21.8303 31.3514 24.5625 33.8728Z" stroke="#E3767E" stroke-width="4"/>
<path d="M55.8236 15.798C57.8436 19.4414 58.6762 23.1855 58.4799 26.2385C58.282 29.3174 57.0845 31.4063 55.3634 32.3605C53.6422 33.3147 51.2361 33.2237 48.5199 31.7604C45.8266 30.3095 43.0923 27.6197 41.0723 23.9762C39.0523 20.3328 38.2197 16.5887 38.416 13.5357C38.6139 10.4568 39.8114 8.36788 41.5326 7.41366C43.2537 6.45945 45.6598 6.55051 48.376 8.01378C51.0693 9.46474 53.8036 12.1545 55.8236 15.798Z" stroke="#E3767E" stroke-width="4"/>
<path d="M92.1764 22.9611C90.3217 26.6914 87.7106 29.501 85.085 31.0712C82.4372 32.6547 80.0375 32.8535 78.2754 31.9774C76.5132 31.1012 75.2233 29.0681 74.8876 26.0011C74.5547 22.96 75.2187 19.1824 77.0734 15.4521C78.9281 11.7217 81.5392 8.91215 84.1648 7.34195C86.8126 5.75843 89.2122 5.55965 90.9744 6.43578C92.7366 7.31191 94.0265 9.34508 94.3622 12.412C94.6951 15.4531 94.031 19.2308 92.1764 22.9611Z" stroke="#E3767E" stroke-width="4"/>
<path d="M104.009 46.3565C103.742 45.0244 103.689 41.561 105.607 38.364C108.005 34.3677 114.399 27.9737 120.793 30.3715C127.187 32.7692 124.789 43.9587 115.997 49.5535" stroke="#E3767E" stroke-width="4" stroke-linecap="round"/>
</svg>
