<svg width="35" height="35" viewBox="0 0 35 35" fill="none" xmlns="http://www.w3.org/2000/svg">
<path d="M17.5 30.625C24.7487 30.625 30.625 24.7487 30.625 17.5C30.625 10.2513 24.7487 4.375 17.5 4.375C10.2513 4.375 4.375 10.2513 4.375 17.5C4.375 24.7487 10.2513 30.625 17.5 30.625Z" stroke="#E3767E" stroke-width="3" stroke-miterlimit="10" stroke-linecap="round" stroke-linejoin="round"/>
<path d="M22.9357 15.6439C23.5214 15.0581 23.5214 14.1084 22.9357 13.5226C22.3499 12.9368 21.4001 12.9368 20.8143 13.5226L22.9357 15.6439ZM16.0417 20.4166L14.981 21.4772C15.5668 22.063 16.5165 22.063 17.1023 21.4772L16.0417 20.4166ZM14.1857 16.4393C13.5999 15.8535 12.6501 15.8535 12.0643 16.4393C11.4786 17.025 11.4786 17.9748 12.0643 18.5606L14.1857 16.4393ZM20.8143 13.5226L14.981 19.3559L17.1023 21.4772L22.9357 15.6439L20.8143 13.5226ZM17.1023 19.3559L14.1857 16.4393L12.0643 18.5606L14.981 21.4772L17.1023 19.3559Z" fill="#E3767E"/>
</svg>
