<svg width="47" height="56" viewBox="0 0 47 56" fill="none" xmlns="http://www.w3.org/2000/svg">
<path d="M7.6 46.6H3C1.89543 46.6 1 45.7046 1 44.6V24.6C1 23.4955 1.89542 22.6 2.99999 22.6L9.4 22.6L40 22.6M38.2 46.6H44C45.1046 46.6 46 45.7046 46 44.6V24.6C46 23.4955 45.1046 22.6 44 22.6H40M23.8 46.6H16.6M40 22.6C41.4 21.4 43.84 18.04 42.4 14.2M28.6 10C29.6 9.00005 32.44 7.24005 35.8 8.20005M14.8 39.4H18.4M16.6 31L19.6 33.4M24.4 27.4V31M19.6 7C19.4 6.6 18.64 5.8 17.2 5.8C15.4 5.8 14.2 7 14.2 8.8C14.2 10.24 16.2 11 17.2 11.2C18.2 11.4 20.2 12.4 20.2 14.8C20.2 17.8 15.4 18.4 13.6 16.6M17.2 4V19M28.6 46.6L25.7627 52.2746C25.5394 52.7212 24.8715 52.6007 24.8183 52.1043L23.2658 37.6142C23.2319 37.2979 23.498 37.0308 23.8144 37.0636L38.7871 38.6125C39.2928 38.6648 39.4068 39.3507 38.9451 39.5638L32.8 42.4L40.8464 50.4464C41.0417 50.6417 41.0417 50.9583 40.8464 51.1536L37.3536 54.6464C37.1583 54.8417 36.8417 54.8417 36.6464 54.6465L28.6 46.6Z" stroke="#EF6735" stroke-width="2" stroke-linecap="round"/>
<path d="M9.99878 22.6C7.08477 20.4107 5.19995 16.9254 5.19995 13C5.19995 6.37258 10.5725 1 17.2 1C23.8274 1 29.2 6.37258 29.2 13C29.2 16.9254 27.3151 20.4107 24.4011 22.6" stroke="#EF6735" stroke-width="2"/>
<circle cx="12.4001" cy="46.5999" r="1.2" fill="#EF6735"/>
<circle cx="40" cy="10.5999" r="1.2" fill="#EF6735"/>
</svg>
