<svg width="52" height="51" viewBox="0 0 52 51" fill="none" xmlns="http://www.w3.org/2000/svg">
<path d="M51 31.2198V45.9011C51 48.1102 49.2091 49.9011 47 49.9011H20.9341C18.7249 49.9011 16.9341 48.1102 16.9341 45.9011V35.0659M16.9341 20.2308V35.0659M16.9341 13.0879V9.65597C16.9341 9.39076 17.0394 9.1364 17.227 8.94887L25.1758 1M25.1758 1H47C49.2091 1 51 2.79086 51 5V19.6813M25.1758 1V6.49451C25.359 7.41026 24.7363 9.24176 20.7802 9.24176M1 17.4835H5.94506M1 30.6703H5.94506M5.94506 28.4725C5.94506 30.6703 7.37363 35.0659 13.0879 35.0659H16.9341M5.94506 19.6813C5.94506 17.4835 7.26374 13.0879 12.5385 13.0879H24.0769C25.1758 13.0879 27.3736 13.7473 27.3736 16.3846C27.3736 19.022 25.1758 19.6813 24.0769 19.6813H13.0879M36.1648 13.0879L38.3626 15.2857L42.2088 11.4396M22.4286 28.4725H36.1648M22.4286 33.967H31.2198M21.8791 39.4615H27.9231M21.8791 44.4066H29.5714M29.5714 44.4066L35.6154 41.6593M29.5714 44.4066L32.3187 38.3626M35.6154 41.6593L32.3187 38.3626M35.6154 41.6593L46.6044 30.2633M32.3187 38.3626C35.3599 35.4384 40.3883 30.6017 43.7396 27.3736M43.7396 27.3736C45.6357 25.5472 46.995 24.2358 47.1538 24.0769C47.7033 23.5275 49.3517 22.4286 50.4506 23.5275C51.3297 24.4066 50.8169 25.7253 50.4506 26.2747L46.6044 30.2633M43.7396 27.3736L46.6044 30.2633M41.6593 39.4615H45.5055M36.1648 44.4066H45.5055" stroke="#EF6735" stroke-width="2" stroke-linecap="square"/>
<circle cx="38.9121" cy="13.6374" r="7.79121" stroke="#EF6735" stroke-width="2"/>
</svg>
