<svg width="52" height="52" viewBox="0 0 52 52" fill="none" xmlns="http://www.w3.org/2000/svg">
<circle cx="26.5556" cy="25.4445" r="15.6667" stroke="#EF6735" stroke-width="2"/>
<path d="M30.5891 28.9084L37.3112 22.2977C37.7096 21.9059 37.7096 21.2636 37.3112 20.8718L34.7064 18.3102C34.3257 17.9358 33.7179 17.9266 33.326 18.2893L24.2876 26.6549L20.4022 23.3116C20.008 22.9724 19.4196 22.9919 19.0488 23.3566L15.847 26.5053C15.4485 26.8971 15.4485 27.5395 15.847 27.9313L21.4234 33.4152C22.1872 34.1663 24.1731 35.2179 26.0062 33.4152L27.7248 31.7251M23.1419 6.93753C24.2876 5.81082 27.2665 4.23343 30.0162 6.93753C30.5891 7.5009 32.193 8.40229 34.0262 7.50092C36.3176 6.37421 39.1819 8.62763 39.1819 10.881C39.1819 12.6838 41.4733 13.51 42.619 13.6978C43.7647 13.8856 45.9416 15.1625 45.4833 18.768C45.2923 19.7069 45.2542 21.9228 46.629 23.2748C48.3476 24.9649 47.7747 27.7816 46.0562 28.9084C44.3376 30.0351 45.4833 32.8519 45.4833 33.4152C45.4833 33.9786 46.0562 37.3587 42.619 38.4854C39.1819 39.6121 39.7547 40.7388 39.1819 41.8655C38.609 42.9923 38.0362 45.2457 34.0262 44.6823C33.2624 44.4945 31.2765 44.457 29.4433 45.809C27.6102 47.1611 25.2424 46.3724 24.2876 45.809C23.5238 45.0579 21.3088 43.6683 18.5591 44.119C15.8094 44.5697 14.3581 42.4289 13.9762 41.3022C13.7853 40.5511 12.8305 38.9361 10.5391 38.4854C7.67482 37.9221 7.10197 34.5419 7.67482 33.4152C8.24768 32.2885 8.24767 30.5984 6.5291 28.9084C4.81053 27.2183 5.38338 24.4016 6.5291 23.2748C7.67482 22.1481 8.24771 19.8947 7.67482 18.2047C7.10194 16.5146 8.24771 14.2612 10.5391 13.6978C12.8305 13.1345 12.8305 12.5711 13.9762 10.881C15.1219 9.19099 15.1219 7.50092 19.1319 7.50092C19.8883 7.68868 21.7494 7.83887 23.1419 6.93753Z" stroke="#EF6735" stroke-width="2" stroke-linecap="round"/>
<path d="M7.11111 7.11111L1 1M12.1111 3.77778L11 1M3.77778 11.5556L1 11M40.4444 3.77778L41 1M44.3333 7.11111L51 1M47.6667 11.5556L51 11M47.6667 40.4444L51 41.5556M44.3333 44.8889L51 51M39.8889 48.2222L41 51M12.1111 48.2222L11.5556 51M7.11111 44.8889L1 51M3.77778 40.4444L1.55556 41" stroke="#EF6735" stroke-width="2" stroke-linecap="round"/>
</svg>
