<svg width="52" height="53" viewBox="0 0 52 53" fill="none" xmlns="http://www.w3.org/2000/svg">
<path d="M13.7778 42.6668H22.1111M13.7778 20.4446L9.88889 26.5557L1.71048 21.9553C1.38523 21.7724 1.36776 21.3105 1.67826 21.1035L7.41521 17.2789C7.56982 17.1758 7.76885 17.167 7.93198 17.2559L13.7778 20.4446ZM13.7778 20.4446H23.7778M28.2222 20.4446H38.2222M38.2222 20.4446L42.1111 26.5557L50.3319 21.9315C50.6466 21.7545 50.6756 21.3124 50.3867 21.0957L44.61 16.7632C44.4435 16.6383 44.2171 16.6296 44.0416 16.7413L38.2222 20.4446Z" stroke="#EF6735" stroke-width="2" stroke-linecap="round"/>
<mask id="path-2-inside-1_52_816" fill="white">
<rect x="8.77783" y="25.4443" width="34.4444" height="26.6667" rx="1"/>
</mask>
<rect x="8.77783" y="25.4443" width="34.4444" height="26.6667" rx="1" stroke="#EF6735" stroke-width="4" mask="url(#path-2-inside-1_52_816)"/>
<mask id="path-3-inside-2_52_816" fill="white">
<rect x="8.77783" y="37.6667" width="17.7778" height="10" rx="1"/>
</mask>
<rect x="8.77783" y="37.6667" width="17.7778" height="10" rx="1" stroke="#EF6735" stroke-width="4" mask="url(#path-3-inside-2_52_816)"/>
<path d="M26 1C20.784 1 16.5555 5.22842 16.5555 10.4444C16.5555 14.6808 19.3447 18.2656 23.1869 19.4628C23.3513 19.5141 23.5028 19.6017 23.6243 19.7238L25.2912 21.3988C25.6821 21.7916 26.3179 21.7916 26.7088 21.3988L28.3757 19.7238C28.4972 19.6017 28.6487 19.5141 28.8131 19.4628C32.6553 18.2656 35.4444 14.6808 35.4444 10.4444C35.4444 5.22842 31.216 1 26 1Z" stroke="#EF6735" stroke-width="2"/>
<path d="M22.6666 11.0001H29.3333M26 7.66675V14.3334" stroke="#EF6735" stroke-width="2" stroke-linecap="round"/>
</svg>
