<svg width="186" height="72" viewBox="0 0 186 72" fill="none" xmlns="http://www.w3.org/2000/svg">
<g clip-path="url(#clip0_151_173)">
<path d="M14.4999 22.5C15.2731 22.5 15.8999 21.8731 15.8999 21.1C15.8999 20.3268 15.2731 19.7 14.4999 19.7C13.7267 19.7 13.0999 20.3268 13.0999 21.1C13.0999 21.8731 13.7267 22.5 14.4999 22.5Z" fill="#E3767E"/>
<path d="M14.4999 22.6H14.3999C13.9999 22.6 13.5999 22.4 13.2999 22.1C12.9999 21.8 12.8999 21.4 12.8999 21C12.9999 20.1 13.6999 19.5 14.5999 19.6C15.4999 19.7 16.0999 20.4 15.9999 21.3C15.9999 22 15.2999 22.6 14.4999 22.6ZM14.4999 19.8C13.8999 19.8 13.2999 20.3 13.2999 20.9C13.2999 21.2 13.3999 21.5 13.5999 21.8C13.7999 22 14.0999 22.2 14.3999 22.2C14.6999 22.2 14.9999 22.1 15.2999 21.9C15.4999 21.7 15.6999 21.4 15.6999 21.1C15.7999 20.5 15.2999 19.9 14.4999 19.8C14.4999 19.8 14.5999 19.8 14.4999 19.8Z" fill="#E3767E"/>
<path d="M26.9999 22.5C27.7731 22.5 28.3999 21.8731 28.3999 21.1C28.3999 20.3268 27.7731 19.7 26.9999 19.7C26.2267 19.7 25.5999 20.3268 25.5999 21.1C25.5999 21.8731 26.2267 22.5 26.9999 22.5Z" fill="#E3767E"/>
<path d="M26.9999 22.7H26.8999C25.9999 22.6 25.3999 21.9 25.4999 21C25.4999 20.6 25.6999 20.2 25.9999 19.9C26.2999 19.6 26.6999 19.5 27.0999 19.5C27.9999 19.6 28.5999 20.3 28.4999 21.2C28.4999 22.1 27.7999 22.7 26.9999 22.7ZM26.9999 19.9C26.6999 19.9 26.3999 20 26.1999 20.2C25.9999 20.4 25.7999 20.7 25.7999 21C25.7999 21.3 25.8999 21.6 26.0999 21.9C26.2999 22.1 26.5999 22.3 26.8999 22.3C27.5999 22.4 28.1999 21.9 28.1999 21.2C28.1999 20.5 27.6999 20 26.9999 19.9Z" fill="#E3767E"/>
<path d="M18.5999 24.3H22.0999C22.0999 24.3 23.0999 24.5 22.4999 25.8C21.8999 27 20.8999 28 20.8999 28C20.8999 28 19.8999 28.6 19.0999 27.9C18.3999 27.1 17.6999 25.5 17.6999 25.5C17.6999 25.5 17.2999 24.3 18.5999 24.3Z" fill="#E3767E"/>
<path d="M20.1 28.4001C19.8 28.4001 19.4 28.3001 19.1 28.0001C18.3 27.2001 17.7 25.6001 17.6 25.5001C17.6 25.5001 17.4 24.9001 17.7 24.5001C17.9 24.2001 18.2 24.1001 18.7 24.1001H22.2C22.2 24.1001 22.7 24.2001 22.9 24.6001C23.1 24.9001 23 25.3001 22.8 25.8001C22.2 27.0001 21.2 28.1001 21.2 28.1001C20.8 28.3001 20.5 28.4001 20.1 28.4001ZM18.6 24.5001C18.3 24.5001 18 24.6001 17.9 24.8001C17.7 25.1001 17.8 25.4001 17.8 25.4001C17.8 25.4001 18.5 27.0001 19.2 27.7001C19.8 28.3001 20.6 27.9001 20.7 27.8001C20.8 27.7001 21.7 26.7001 22.3 25.6001C22.5 25.2001 22.5 24.9001 22.4 24.7001C22.3 24.5001 22.1 24.4001 22 24.4001L18.6 24.5001Z" fill="#E3767E"/>
<path d="M11.7998 9.10007L14.2998 3.90007C14.2998 3.90007 15.3998 1.20007 21.6998 1.30007C27.9998 1.40007 29.1998 3.50007 29.1998 3.50007L31.6998 8.20007C31.6998 8.20007 32.5998 11.8001 22.3998 12.7001C22.3998 12.7001 12.8998 12.9001 11.7998 9.10007Z" fill="#F7E5B4"/>
<path d="M21.8999 14C19.3999 14 11.7999 13.6 10.5999 9.50003L10.3999 9.00003L13.0999 3.40003C13.3999 2.80003 14.9999 -0.199968 21.6999 3.18335e-05C28.2999 0.200032 29.9999 2.40003 30.2999 2.80003V2.90003L32.7999 7.70003V7.90003C32.7999 8.10003 33.0999 9.20003 32.1999 10.4C30.7999 12.3 27.4999 13.6 22.3999 14H22.2999C22.2999 14 22.0999 14 21.8999 14ZM13.1999 9.10003C14.2999 10.8 19.0999 11.5 22.2999 11.4C28.5999 10.8 30.1999 9.20003 30.3999 8.50003L28.0999 4.20003C27.8999 4.00003 26.3999 2.70003 21.5999 2.60003C16.7999 2.50003 15.4999 4.20003 15.3999 4.40003V4.50003L13.1999 9.10003Z" fill="#E3767E"/>
<path d="M21.9001 7.9001C21.6001 7.9001 21.3001 7.9001 21.0001 7.9001C18.4001 7.8001 16.9001 7.2001 16.2001 6.2001C15.8001 5.6001 15.9001 5.0001 16.0001 4.6001L17.6001 5.3001C17.6001 5.2001 17.6001 5.2001 17.6001 5.2001C17.6001 5.2001 17.6001 5.2001 17.7001 5.3001C17.8001 5.5001 18.5001 6.0001 21.0001 6.1001C25.8001 6.3001 26.9001 5.0001 27.0001 5.0001L28.5001 5.8001C28.4001 6.2001 27.2001 7.9001 21.9001 7.9001Z" fill="#E3767E"/>
<path d="M18.9 7.19998L17.5 5.99998C17.5 5.99998 21.3 1.49998 26.9 5.59998L25.8 7.09998C21.7 4.09998 19.2 6.89998 18.9 7.19998Z" fill="#E3767E"/>
<path d="M30.4999 24.9999C30.3999 24.9999 30.3999 24.9999 30.2999 24.9999C30.1999 24.9999 30.1999 24.9999 30.0999 24.9999H29.9999C29.9999 24.9999 29.9999 24.9999 29.8999 24.9999C29.8999 24.9999 29.7999 24.9999 29.7999 24.8999C29.5999 24.4999 29.7999 24.0999 30.1999 23.8999C30.2999 23.8999 31.9999 23.0999 34.1999 23.5999C34.5999 23.6999 34.7999 24.0999 34.7999 24.4999C34.6999 24.8999 34.2999 25.1999 33.8999 25.0999C33.6999 25.0999 33.4999 24.9999 33.1999 24.9999C32.9999 24.9999 32.7999 24.8999 32.5999 24.8999C32.3999 24.8999 32.1999 24.8999 32.0999 24.8999C31.8999 24.8999 31.7999 24.8999 31.5999 24.8999C31.4999 24.8999 31.2999 24.8999 31.1999 24.8999C31.0999 24.8999 30.9999 24.8999 30.8999 24.8999H30.7999C30.7999 24.8999 30.6999 24.9999 30.4999 24.9999Z" fill="#E3767E"/>
<path d="M33.4 28.9999C33.2 28.9999 33 28.8999 32.8 28.6999C32 27.6999 31 27.0999 31 27.0999C30.7 26.8999 30.5 26.7999 30.5 26.5999C30.6 26.1999 31 25.9999 31.4 26.0999C31.5 26.0999 32.8 26.4999 33.9 27.7999C34.1 28.0999 34.1 28.5999 33.8 28.7999C33.7 28.9999 33.6 28.9999 33.4 28.9999Z" fill="#E3767E"/>
<path d="M9.3001 25.2001C9.4001 25.2001 9.4001 25.2001 9.3001 25.2001C9.4001 25.2001 9.4001 25.2001 9.5001 25.2001C9.6001 25.2001 9.6001 25.2001 9.7001 25.2001C9.7001 25.2001 9.8001 25.2001 9.8001 25.1001C9.8001 25.1001 9.8001 25.1001 9.9001 25.0001C9.9001 25.0001 9.9001 24.9001 10.0001 24.9001C10.1001 24.5001 9.8001 24.1001 9.4001 24.1001C9.3001 24.1001 7.5001 23.8001 5.5001 24.9001C5.1001 25.1001 5.0001 25.5001 5.2001 25.9001C5.4001 26.3001 5.8001 26.4001 6.2001 26.2001C6.4001 26.1001 6.6001 26.0001 6.8001 25.9001C7.0001 25.8001 7.2001 25.7001 7.4001 25.7001C7.6001 25.6001 7.7001 25.6001 7.9001 25.5001C8.1001 25.5001 8.2001 25.4001 8.4001 25.4001C8.5001 25.4001 8.6001 25.3001 8.8001 25.3001C8.9001 25.3001 9.0001 25.3001 9.1001 25.3001H9.2001C9.1001 25.2001 9.2001 25.2001 9.3001 25.2001Z" fill="#E3767E"/>
<path d="M7.60004 29.7999C7.80004 29.6999 8.00004 29.5999 8.10004 29.3999C8.60004 28.2999 9.40004 27.3999 9.40004 27.3999C9.60004 27.0999 9.80004 26.9999 9.70004 26.7999C9.50004 26.4999 9.10004 26.2999 8.70004 26.4999C8.60004 26.4999 7.40004 27.2999 6.70004 28.7999C6.50004 29.1999 6.70004 29.5999 7.10004 29.6999C7.20004 29.7999 7.40004 29.8999 7.60004 29.7999Z" fill="#E3767E"/>
<path d="M47.7 40.5C47 39.1 46.4 37.9 45.8 37L43.9 33.5C43.4 32.6 42.9 31.6 42.4 30.7C38.1 23.2 39 16.3 39 16.2C40.1 10.4 41 5.29997 39.4 4.29997C37.4 3.29997 33.9 7.19997 30 11.6C23.9 10.1 15.8 11.3 13.1 11.8L8.49999 4.29997C7.99999 3.59997 6.49999 1.29997 4.49999 1.79997C2.69999 2.29997 1.69999 4.59997 1.29999 9.49997C0.999985 12.6 0.999985 15.6 0.999985 15.7H3.59999C3.59999 10.4 4.19999 5.19997 5.09999 4.19997C5.29998 4.29997 5.69999 4.69997 6.19999 5.49997L11.8 14.5L12.7 14.3C12.8 14.3 23.2 12.1 29.9 14.1L30.6 14.3L37.2 7.49997C37.6 9.29997 36.9 12.6 36.3 15.8C36.2 16.4 35.4 23.7 40 31.6C45.3 40.7 49 53.4 36.9 61.7C30.9 65.9 23.1 67.1 15.7 65C9.89999 63.6 4.99999 60 3.39999 56.2C1.59999 52 3.19999 46.6 6.89999 44.1C10.5 41.7 14.9 42.5 19.4 46.3L20.3 47.1L21.2 46.3C22.6 45 27 41.8 30.2 43.1C31.2 43.5 31.9 44.3 32.3 45.2C32.3 45.2 32.3 45.3 32.4 45.4C32.4 45.5 32.5 45.6 32.5 45.7C33.1 47.4 34.6 53.6 28 56C28 56 27.7 56.2 27.3 56.1C27 56.1 26.7 55.9 26.6 55.5C26 54.3 24.2 52.9 22.6 54.1C22.6 54.1 20.5 56 23.1 57.4C23.9 57.8 24.8 57.9 25.7 57.9C25.8 57.9 25.8 57.9 25.9 57.9C26.5 57.9 27.7 57.7 27.7 57.7C27.7 57.7 34.7 56.7 35.3 48.1C35.3 47.8 35.4 47.5 35.4 47.2C35.4 47 35.4 46.9 35.4 46.7C35.2 43.9 33.7 41.7 31.3 40.7C27.1 39 22.3 42.2 20.4 43.7C13 38.2 7.49999 40.7 5.49999 42.1C2.19999 44.3 0.299985 48.1 0.0999854 51.9C0.0999854 51.9 -0.900015 58.4 6.59999 64.7C6.69999 64.8 6.89999 64.9 6.99999 65C15.6 71.8 31.2 74 42.5 66.2C53.2 57.7 50.6 46.8 47.7 40.5Z" fill="#E3767E"/>
<path d="M70.6001 34.1L63.9001 36.6L63.1001 34.3L65.7001 33.4001L64.4001 30.2001L66.7001 29.3L68.0001 32.6L70.6001 31.6L69.6001 28.9L71.9001 28L72.9001 30.8L74.8001 30.1L75.6001 32.4001L73.0001 33.4001C73.4001 33.9001 73.7001 34.5 74.0001 35.1C74.5001 36.2 74.8001 37.4001 74.8001 38.7001V51.3H71.0001L72.3001 49.4001V38.8C72.3001 37.6 72.0001 36.5 71.5001 35.5C71.2001 35 70.9001 34.6 70.6001 34.1ZM68.9001 37.7001L70.2001 39.7001L64.8001 43.2001L63.5001 41.2001L68.9001 37.7001ZM73.3001 22.3L75.1001 24.1C73.6001 25.2 71.9001 26.1 70.1001 26.6C68.1001 27.1 65.9001 27.4 63.6001 27.4L63.9001 25C66.2001 25 68.0001 24.7 69.2001 24.3C70.7001 23.9 72.1001 23.2 73.3001 22.3ZM69.3001 42.7001L70.6001 44.6L65.4001 48.2001L64.1001 46.2001L69.3001 42.7001ZM92.1001 26.4V28.8H88.6001V32.3H86.2001V28.8H81.9001V32.3H79.5001V28.8H76.1001V26.4H79.5001V22.8H81.9001V26.4H86.2001V22.8H88.6001V26.4H92.1001ZM88.5001 41.2001L88.7001 36.8L80.8001 36.5L80.7001 34.1L89.8001 34.4001L91.1001 35.6L90.6001 49.2001L89.3001 50.4001L78.9001 50.5L77.6001 49.4001L77.1001 37L79.7001 36.8L80.3001 47.9001H83.5001V43.6H81.6001V41.2001H83.5001V38.1H86.0001V41.2001H88.5001ZM86.0001 47.9001H88.3001L88.5001 43.7001H86.0001V47.9001Z" fill="#E3767E" stroke="#E3767E" stroke-width="1.0386" stroke-miterlimit="10"/>
<path d="M116.1 22.8L117.3 24V30.6H120.3V33H117.3V37.7001H120.2V40.1H117.3V51H113.1L114.8 49.2001V40.2001H109.6V37.8H114.8V33H109.7V30.6H114.8V25.1H104.7C104.6 32.6 104 38.0001 103.1 41.4001C102.2 44.7001 100.6 47.9 98.4002 51L96.7002 49.2001C98.8002 46 100.2 43 100.9 40.2001C101.8 37.4001 102.3 32 102.3 24L103.5 22.8H116.1Z" fill="#E3767E" stroke="#E3767E" stroke-width="1.0386" stroke-miterlimit="10"/>
<path d="M134.9 34.1L128.2 36.6L127.4 34.3L130 33.4001L128.7 30.2001L131 29.3L132.3 32.6L134.9 31.6L133.9 28.9L136.2 28L137.2 30.8L139.1 30.1L139.9 32.4001L137.3 33.4001C137.7 33.9001 138 34.5 138.3 35.1C138.8 36.2 139.1 37.4001 139.1 38.7001V51.3H135.3L136.6 49.4001V38.8C136.6 37.6 136.3 36.5 135.8 35.5C135.5 35 135.2 34.6 134.9 34.1ZM133.1 37.7001L134.4 39.7001L129 43.2001L127.7 41.2001L133.1 37.7001ZM137.6 22.3L139.4 24.1C137.9 25.2 136.2 26.1 134.4 26.6C132.4 27.1 130.2 27.4 127.9 27.4L128.2 25C130.5 25 132.3 24.7 133.5 24.3C134.9 23.9 136.3 23.2 137.6 22.3ZM133.5 42.7001L134.8 44.6L129.6 48.2001L128.3 46.2001L133.5 42.7001ZM156.3 26.4V28.8H152.8V32.3H150.4V28.8H146.1V32.3H143.7V28.8H140.3V26.4H143.7V22.8H146.1V26.4H150.4V22.8H152.8V26.4H156.3ZM152.8 41.2001L153 36.8L145.1 36.5L145 34.1L154.1 34.4001L155.4 35.6L154.9 49.2001L153.6 50.4001L143.2 50.5L141.9 49.4001L141.3 37L143.9 36.8L144.5 47.9001H147.7V43.6H145.8V41.2001H147.7V38.1H150.1V41.2001H152.8ZM150.2 47.9001H152.5L152.7 43.7001H150.2V47.9001Z" fill="#E3767E" stroke="#E3767E" stroke-width="1.0386" stroke-miterlimit="10"/>
<path d="M171.1 23.6001L181.3 24.3001L182.5 25.6001L182 35.3001H185.3V37.7001H181.8L181.2 48.6001L180 49.9001L166.8 50.0001L165.5 48.8001L164.4 27.4001L166.8 27.3001L167.8 47.4001H178.7L179.2 37.8001H173.3V35.4001H179.3L179.7 26.9001L170.8 26.3001L171.1 23.6001Z" fill="#E3767E" stroke="#E3767E" stroke-width="1.0386" stroke-miterlimit="10"/>
</g>
<defs>
<clipPath id="clip0_151_173">
<rect width="185.8" height="71.2" fill="white"/>
</clipPath>
</defs>
</svg>
