<svg width="279" height="106" viewBox="0 0 279 106" fill="none" xmlns="http://www.w3.org/2000/svg">
<path d="M218.8 92.1777C218.8 48.0072 183.296 12.2 139.5 12.2C95.7038 12.2 60.2 48.0072 60.2 92.1777" stroke="#FDC2AD" stroke-width="20.3333" stroke-linecap="round"/>
<circle cx="142.719" cy="86.0521" r="18.9778" transform="rotate(-89.5023 142.719 86.0521)" fill="#EF6735"/>
<path d="M87.8551 32.4007L124.739 84.7167L142.256 68.2574L92.5399 27.9988C91.559 27.091 89.1899 25.658 87.5604 27.1891C85.9309 28.7202 87.0779 31.3015 87.8551 32.4007Z" fill="#EF6735"/>
<path d="M20.584 88.936C18.76 94.392 15.272 97.48 9.576 99.128C9.816 99.4 10.184 99.96 10.328 100.248C16.136 98.392 19.784 95.112 21.832 89.288L20.584 88.936ZM13.32 89L12.2 89.352C14.232 94.76 17.896 98.6 23.64 100.184C23.832 99.848 24.184 99.336 24.472 99.064C18.872 97.672 15.128 93.96 13.32 89ZM9.8 88.392V89.56H24.264V88.392H9.8ZM15.768 85.832C16.248 86.632 16.744 87.688 16.952 88.344L18.264 87.928C18.04 87.256 17.496 86.216 17.016 85.464L15.768 85.832ZM32.456 92.952V94.024H40.44V92.952H32.456ZM35.496 91.112V98.952C35.496 99.128 35.448 99.192 35.256 99.192C35.064 99.192 34.44 99.192 33.752 99.176C33.896 99.48 34.056 99.928 34.104 100.232C35.032 100.232 35.672 100.216 36.088 100.056C36.504 99.88 36.616 99.576 36.616 98.952V91.112H35.496ZM39.08 85.736C37.56 86.232 34.808 86.648 32.488 86.904C32.616 87.128 32.76 87.528 32.792 87.752C35.208 87.56 38.056 87.144 39.912 86.568L39.08 85.736ZM33.208 90.568V91.576H38.36V95.512H33.144V96.504H39.384V90.568H33.208ZM32.952 88.376C33.336 89.032 33.736 89.912 33.88 90.504L34.808 90.104C34.632 89.544 34.232 88.68 33.816 88.056L32.952 88.376ZM35.176 87.976C35.48 88.664 35.752 89.608 35.832 90.2L36.808 89.944C36.712 89.368 36.424 88.456 36.104 87.768L35.176 87.976ZM38.728 87.48C38.472 88.184 37.976 89.24 37.592 89.896L38.488 90.184C38.872 89.56 39.336 88.632 39.736 87.784L38.728 87.48ZM26.024 87V87.896H32.216V87H26.024ZM26.456 88.856V89.736H31.8V88.856H26.456ZM25.768 90.76V91.688H32.44V90.76H25.768ZM27.096 94.648V95.512H31.256V94.648H27.096ZM27.096 96.664V97.528H31.24V96.664H27.096ZM28.632 85.56V91.304H29.752V85.56H28.632ZM30.68 92.616V99.08C30.68 99.256 30.616 99.32 30.424 99.32C30.232 99.32 29.576 99.336 28.84 99.304C29 99.576 29.16 99.976 29.224 100.248C30.216 100.248 30.824 100.248 31.208 100.072C31.608 99.912 31.72 99.624 31.72 99.08V92.616H30.68ZM27.064 92.616V93.528H31.16V92.616H27.064ZM26.52 92.616V96.104C26.52 97.24 26.456 98.568 25.72 99.576C25.944 99.72 26.344 100.136 26.488 100.36C27.416 99.208 27.56 97.48 27.56 96.12V92.616H26.52Z" fill="black"/>
<path d="M244.272 94.056V100.28H245.376V95.16H251.104V100.2H252.256V94.056H244.272ZM251.664 85.624C249.888 86.264 246.64 86.76 243.856 87.064C244 87.336 244.16 87.8 244.208 88.088C247.072 87.816 250.416 87.32 252.608 86.568L251.664 85.624ZM247.728 87.016V94.696H248.88V87.016H247.728ZM243.104 90.264V91.416H253.296V90.264H243.104ZM245.024 98.488V99.592H251.632V98.488H245.024ZM239.44 86.616C240.432 87.144 241.76 87.928 242.432 88.408L243.136 87.432C242.448 86.968 241.088 86.248 240.112 85.768L239.44 86.616ZM238.656 91.032C239.632 91.544 240.96 92.312 241.616 92.76L242.288 91.784C241.616 91.32 240.272 90.616 239.328 90.152L238.656 91.032ZM239.04 99.256L240.048 100.072C240.992 98.584 242.112 96.584 242.96 94.888L242.096 94.104C241.168 95.928 239.904 98.04 239.04 99.256ZM259.408 86.168V87.144H262.832V86.168H259.408ZM262.48 86.168V86.344C261.84 88.632 260.032 90.456 258.128 91.24C258.352 91.448 258.624 91.848 258.768 92.104C260.864 91.128 262.768 89.16 263.568 86.376L262.896 86.136L262.672 86.168H262.48ZM259.12 88.456C259.728 88.872 260.496 89.512 260.896 89.928L261.568 89.192C261.184 88.792 260.4 88.2 259.776 87.784L259.12 88.456ZM265.04 85.736L264.016 85.912C264.8 88.792 266.384 90.936 268.896 91.944C269.04 91.656 269.376 91.24 269.616 91.032C267.28 90.216 265.744 88.216 265.04 85.736ZM259.856 93.256V94.2H262.96V90.744H259.744V91.688H261.936V93.256H259.856ZM259.424 93.256C259.312 94.344 259.072 95.736 258.88 96.648H259.872C260.064 95.784 260.272 94.392 260.416 93.256H259.424ZM259.664 95.736L259.424 96.648H262.272V95.736H259.664ZM261.888 95.736V95.896C261.728 98.024 261.552 98.872 261.312 99.096C261.184 99.224 261.072 99.24 260.848 99.224C260.608 99.224 260.032 99.224 259.44 99.176C259.616 99.432 259.728 99.848 259.744 100.152C260.336 100.168 260.928 100.184 261.248 100.152C261.664 100.136 261.92 100.04 262.176 99.784C262.544 99.416 262.72 98.488 262.912 96.184C262.944 96.056 262.96 95.736 262.96 95.736H261.888ZM264.016 90.744V92.136C264.016 92.824 263.888 93.576 263.008 94.184C263.216 94.312 263.6 94.68 263.728 94.888C264.8 94.136 265.008 93.064 265.008 92.168V90.744H264.016ZM264.624 90.744V91.656H267.104V90.744H264.624ZM263.568 95.064V95.96H267.824V95.064H263.568ZM267.552 95.064V95.224C266.912 97.448 265.056 98.856 262.944 99.432C263.168 99.64 263.424 100.04 263.52 100.296C265.888 99.544 267.84 97.976 268.592 95.24L267.952 95.032L267.776 95.064H267.552ZM267.056 86.2C266.624 86.68 265.888 87.368 265.36 87.768L265.968 88.328C266.528 87.944 267.232 87.4 267.792 86.824L267.056 86.2ZM268.48 87.848C268.016 88.296 267.184 88.968 266.592 89.368L267.2 89.912C267.824 89.544 268.608 89.016 269.232 88.456L268.48 87.848ZM266.512 90.744V93.112C266.512 94.008 266.672 94.36 267.536 94.36C267.712 94.36 267.984 94.36 268.128 94.36C268.368 94.36 268.608 94.344 268.768 94.296C268.752 94.072 268.72 93.72 268.704 93.48C268.544 93.544 268.272 93.544 268.112 93.544C268 93.544 267.776 93.544 267.68 93.544C267.52 93.544 267.504 93.464 267.504 93.128V90.744H266.512ZM263.504 96.616C265.024 97.752 266.992 99.32 267.968 100.264L268.688 99.56C267.68 98.648 265.696 97.128 264.192 96.024L263.504 96.616ZM255.136 86.424C255.904 86.968 256.832 87.816 257.264 88.376L257.968 87.608C257.536 87.048 256.592 86.264 255.808 85.752L255.136 86.424ZM254.688 90.936C255.504 91.384 256.512 92.072 256.992 92.568L257.632 91.736C257.136 91.272 256.112 90.6 255.312 90.216L254.688 90.936ZM254.88 99.416L255.808 100.024C256.464 98.6 257.232 96.664 257.808 95.032L256.992 94.44C256.368 96.168 255.488 98.216 254.88 99.416Z" fill="black"/>
</svg>
