<svg width="279" height="106" viewBox="0 0 279 106" fill="none" xmlns="http://www.w3.org/2000/svg">
<g clip-path="url(#clip0_273_678)">
<path d="M218.8 92.1777C218.8 48.0072 183.296 12.2 139.5 12.2C95.7038 12.2 60.2 48.0072 60.2 92.1777" stroke="#FDC2AD" stroke-width="20.3333" stroke-linecap="round"/>
<circle cx="138.698" cy="87.0802" r="18.9778" transform="rotate(-5.55818 138.698 87.0802)" fill="#EF6735"/>
<path d="M186.261 26.8626L138.129 69.0598L156.344 84.7428L191.133 31.0569C191.932 29.9857 193.107 27.4786 191.413 26.0197C189.718 24.5608 187.273 25.9738 186.261 26.8626Z" fill="#EF6735"/>
<path d="M29.224 85.624C28.328 88.056 26.84 90.456 25.256 92.008C25.48 92.28 25.816 92.92 25.944 93.192C27.672 91.4 29.32 88.696 30.36 85.976L29.224 85.624ZM27.56 89.752V100.264H28.712V88.632L28.68 88.616L27.56 89.752ZM31.848 91.72V92.84H40.056V91.72H31.848ZM38.52 85.48C36.792 86.152 33.72 86.792 31.032 87.208C31.16 87.48 31.336 87.88 31.384 88.152C34.168 87.768 37.336 87.144 39.48 86.376L38.52 85.48ZM35.512 87.064C35.752 94.296 36.584 100.12 38.952 100.168C39.56 100.184 40.104 99.48 40.424 97.064C40.216 96.968 39.768 96.696 39.56 96.472C39.464 97.976 39.24 98.824 38.936 98.824C37.672 98.776 36.776 93.4 36.616 87.064H35.512ZM30.776 98.984C31.096 98.776 31.592 98.6 35.128 97.592C35.112 97.336 35.096 96.888 35.112 96.584L31.24 97.576L30.696 97.992L30.776 98.984ZM30.776 98.984C30.776 98.584 32.168 97.928 32.168 97.928V87.48L31.032 87.224V96.968C31.032 97.592 30.6 97.864 30.312 97.992C30.488 98.232 30.712 98.712 30.776 98.984ZM32.504 98.888V99.896H36.776V98.888H32.504Z" fill="black"/>
<path d="M238.944 87.24V88.28H252.992V87.24H238.944ZM242.56 90.072H249.488V91.512H242.56V90.072ZM241.36 89.176V92.392H250.736V89.176H241.36ZM239.52 93.288V100.28H240.688V94.312H252.096V93.288H239.52ZM251.28 93.288V99.016C251.28 99.208 251.2 99.256 250.992 99.272C250.8 99.272 250.064 99.288 249.36 99.256C249.52 99.496 249.68 99.88 249.744 100.152C250.768 100.168 251.472 100.152 251.888 100.008C252.336 99.848 252.48 99.592 252.48 99.016V93.288H251.28ZM245.04 85.784C245.28 86.488 245.6 87.416 245.728 87.976L246.944 87.624C246.816 87.096 246.48 86.2 246.208 85.512L245.04 85.784ZM243.12 95.256V96.152H248.208V97.656H243.12V98.552H249.28V95.256H243.12ZM242.496 95.256V99.352H243.616V95.256H242.496Z" fill="black"/>
</g>
<defs>
<clipPath id="clip0_273_678">
<rect width="279" height="106" fill="white"/>
</clipPath>
</defs>
</svg>
