<svg width="316" height="263" viewBox="0 0 316 263" fill="none" xmlns="http://www.w3.org/2000/svg">
<g clip-path="url(#clip0_35_96)">
<rect width="316" height="263" rx="8" fill="#FFF2F2"/>
<path d="M36.776 97H79.592V85.576H66.248V25.96H55.784C51.176 28.744 46.376 30.568 39.176 31.912V40.648H52.136V85.576H36.776V97Z" fill="#E3767E" fill-opacity="0.4"/>
<path d="M266.295 177.04C274.736 147.369 302.666 152.542 315.818 158.931C315.97 159.005 316.069 159.15 316.088 159.319L327.936 262.443C327.97 262.74 327.738 263 327.439 263H119.672C119.337 263 119.1 262.666 119.199 262.346C136.477 206.463 199.618 202.603 229.14 207.692C237.986 209.914 257.803 206.893 266.295 177.04Z" fill="#FDC2AD"/>
</g>
<defs>
<clipPath id="clip0_35_96">
<rect width="316" height="263" rx="8" fill="white"/>
</clipPath>
</defs>
</svg>
