<svg width="313" height="263" viewBox="0 0 313 263" fill="none" xmlns="http://www.w3.org/2000/svg">
<g clip-path="url(#clip0_35_104)">
<rect width="316" height="263" rx="8" fill="#FFF2F2"/>
<path d="M55.208 98.344C68.84 98.344 80.264 90.856 80.264 77.8C80.264 68.392 74.12 62.536 66.056 60.232V59.752C73.64 56.872 77.864 51.208 77.864 43.624C77.864 31.432 68.552 24.712 54.824 24.712C46.568 24.712 39.752 28.072 33.608 33.352L40.808 42.088C45.032 38.152 49.16 35.752 54.248 35.752C60.296 35.752 63.752 39.112 63.752 44.68C63.752 51.016 59.528 55.432 46.472 55.432V65.608C61.928 65.608 66.056 69.928 66.056 76.936C66.056 83.272 61.16 86.92 53.864 86.92C47.432 86.92 42.344 83.656 38.12 79.528L31.4 88.456C36.392 94.216 43.976 98.344 55.208 98.344Z" fill="#E3767E" fill-opacity="0.4"/>
<path d="M263.295 177.04C271.736 147.369 299.666 152.542 312.818 158.931C312.97 159.005 313.069 159.15 313.088 159.319L324.936 262.443C324.97 262.74 324.738 263 324.439 263H116.672C116.337 263 116.1 262.666 116.199 262.346C133.477 206.463 196.618 202.603 226.14 207.692C234.986 209.914 254.803 206.893 263.295 177.04Z" fill="#FDC2AD"/>
</g>
<defs>
<clipPath id="clip0_35_104">
<rect width="316" height="263" rx="8" fill="white"/>
</clipPath>
</defs>
</svg>
