<svg width="316" height="263" viewBox="0 0 316 263" fill="none" xmlns="http://www.w3.org/2000/svg">
<g clip-path="url(#clip0_35_100)">
<rect width="316" height="263" rx="8" fill="#FFF2F2"/>
<path d="M33.032 97H80.648V85.096H65.288C61.928 85.096 57.224 85.576 53.672 85.96C66.632 73.288 77.384 59.464 77.384 46.504C77.384 33.256 68.36 24.712 55.016 24.712C45.32 24.712 38.888 28.456 32.36 35.464L40.136 43.144C43.784 39.112 47.912 35.752 53.192 35.752C60.008 35.752 63.752 40.168 63.752 47.272C63.752 58.216 52.424 71.56 33.032 88.936V97Z" fill="#E3767E" fill-opacity="0.4"/>
<path d="M267.295 177.04C275.736 147.369 303.666 152.542 316.818 158.931C316.97 159.005 317.069 159.15 317.088 159.319L328.936 262.443C328.97 262.74 328.738 263 328.439 263H120.672C120.337 263 120.1 262.666 120.199 262.346C137.477 206.463 200.618 202.603 230.14 207.692C238.986 209.914 258.803 206.893 267.295 177.04Z" fill="#FDC2AD"/>
</g>
<defs>
<clipPath id="clip0_35_100">
<rect width="316" height="263" rx="8" fill="white"/>
</clipPath>
</defs>
</svg>
